<svg width="140" height="49" viewBox="0 0 140 49" fill="none" xmlns="http://www.w3.org/2000/svg">
<path d="M128.507 25.9581C127.613 25.9581 126.767 25.8373 125.97 25.5956C125.172 25.3539 124.459 24.9914 123.831 24.508C123.226 24.0246 122.743 23.4203 122.38 22.6952C122.018 21.9702 121.837 21.1121 121.837 20.1212C121.837 18.671 122.139 17.535 122.743 16.7133C123.371 15.8915 124.205 15.2872 125.244 14.9005C126.308 14.5138 127.504 14.2721 128.834 14.1754C130.187 14.0546 131.589 13.9942 133.039 13.9942H133.909C133.909 13.5349 133.801 13.1241 133.583 12.7615C133.365 12.399 133.051 12.1089 132.64 11.8914C132.254 11.6739 131.77 11.5651 131.19 11.5651C130.779 11.5651 130.381 11.6255 129.994 11.7464C129.607 11.8672 129.281 12.0364 129.015 12.254C128.773 12.4473 128.628 12.689 128.58 12.979H122.199C122.344 11.7947 122.695 10.7796 123.25 9.93367C123.806 9.06356 124.507 8.36265 125.353 7.83091C126.199 7.27501 127.142 6.86413 128.181 6.59826C129.245 6.3324 130.344 6.19946 131.48 6.19946C134.284 6.19946 136.399 6.98498 137.825 8.556C139.275 10.1029 140 12.3869 140 15.4081V25.6681H134.091V23.1665C133.462 24.1092 132.749 24.7738 131.952 25.1605C131.178 25.5473 130.465 25.7769 129.813 25.8494C129.184 25.9219 128.749 25.9581 128.507 25.9581ZM130.248 21.0638C130.852 21.0638 131.432 20.9188 131.988 20.6287C132.568 20.3145 133.039 19.9278 133.402 19.4686C133.788 19.0094 133.982 18.5501 133.982 18.0909V17.9459H130.393C130.103 17.9459 129.825 17.9822 129.559 18.0547C129.293 18.103 129.051 18.1876 128.834 18.3085C128.64 18.4293 128.483 18.5864 128.362 18.7798C128.242 18.9731 128.181 19.2148 128.181 19.5048C128.181 19.8432 128.266 20.1333 128.435 20.375C128.628 20.5925 128.882 20.7617 129.196 20.8825C129.51 21.0034 129.861 21.0638 130.248 21.0638Z" fill="#1A1A1A"/>
<path d="M107.216 25.6681L100.944 6.56201H107.905L111.494 20.7375L115.12 6.56201H122.044L115.772 25.6681H107.216Z" fill="#1A1A1A"/>
<path d="M91.4607 25.9583C89.5755 25.9583 87.8715 25.5836 86.3488 24.8344C84.8503 24.0851 83.6539 22.9854 82.7596 21.5352C81.8654 20.0609 81.4182 18.2723 81.4182 16.1696C81.4182 14.0185 81.8654 12.2057 82.7596 10.7314C83.6781 9.23288 84.8866 8.0969 86.3851 7.32347C87.8836 6.55004 89.5392 6.16333 91.3519 6.16333C93.213 6.16333 94.8807 6.56213 96.3551 7.35973C97.8536 8.15733 99.0379 9.30538 99.908 10.8039C100.802 12.3024 101.249 14.1272 101.249 16.2783C101.249 18.3569 100.826 20.1213 99.9805 21.5715C99.1346 23.0217 97.9744 24.1214 96.5001 24.8706C95.0257 25.5957 93.3459 25.9583 91.4607 25.9583ZM91.3519 20.0125C92.2704 20.0125 92.9955 19.8192 93.5272 19.4325C94.0589 19.0458 94.4336 18.5624 94.6511 17.9823C94.8686 17.378 94.9774 16.7859 94.9774 16.2058C94.9774 15.6257 94.8686 15.0215 94.6511 14.3931C94.4336 13.7647 94.0589 13.233 93.5272 12.7979C93.0196 12.3628 92.2946 12.1453 91.3519 12.1453C90.4335 12.1453 89.6963 12.3628 89.1404 12.7979C88.6087 13.233 88.2341 13.7647 88.0165 14.3931C87.799 14.9973 87.6902 15.6016 87.6902 16.2058C87.6902 16.8101 87.799 17.4143 88.0165 18.0185C88.2582 18.5986 88.6449 19.082 89.1767 19.4687C89.7084 19.8313 90.4335 20.0125 91.3519 20.0125Z" fill="#1A1A1A"/>
<path d="M68.0884 25.9582C66.1307 25.9582 64.4992 25.5111 63.194 24.6168C61.9131 23.6983 60.9463 22.4898 60.2937 20.9913C59.6653 19.4928 59.3511 17.8493 59.3511 16.0607C59.3511 14.103 59.7136 12.3869 60.4387 10.9126C61.1638 9.41407 62.2152 8.25393 63.5928 7.43216C64.9705 6.58623 66.6503 6.16326 68.6322 6.16326C69.2848 6.16326 69.9011 6.23577 70.4812 6.38078C71.0854 6.50163 71.6413 6.69499 72.1489 6.96086C72.6565 7.20255 73.0794 7.51676 73.4178 7.90347V0H79.8348V25.6682H73.5628V24.0005C73.1036 24.4355 72.584 24.7981 72.0039 25.0881C71.448 25.3781 70.8437 25.5956 70.1912 25.7407C69.5386 25.8857 68.8377 25.9582 68.0884 25.9582ZM69.5023 20.1212C70.4691 20.1212 71.2305 19.9279 71.7864 19.5412C72.3664 19.1303 72.7773 18.6227 73.019 18.0185C73.2849 17.3901 73.4178 16.7496 73.4178 16.097C73.4178 15.4202 73.2849 14.7797 73.019 14.1755C72.7773 13.5471 72.3664 13.0395 71.7864 12.6528C71.2305 12.2419 70.4812 12.0365 69.5386 12.0365C68.5718 12.0365 67.8105 12.254 67.2545 12.6891C66.6986 13.1241 66.2998 13.6679 66.0582 14.3205C65.8406 14.9489 65.7319 15.5773 65.7319 16.2057C65.7319 16.6891 65.7923 17.1725 65.9131 17.6559C66.0582 18.1151 66.2757 18.5381 66.5657 18.9248C66.8799 19.2874 67.2787 19.5774 67.7621 19.7949C68.2455 20.0125 68.8256 20.1212 69.5023 20.1212Z" fill="#1A1A1A"/>
<path d="M51.2859 25.6682V0H57.7029V25.6682H51.2859Z" fill="#1A1A1A"/>
<path d="M39.917 25.9583C38.0318 25.9583 36.3278 25.5836 34.8051 24.8344C33.3066 24.0851 32.1102 22.9854 31.2159 21.5352C30.3217 20.0609 29.8745 18.2723 29.8745 16.1696C29.8745 14.0185 30.3217 12.2057 31.2159 10.7314C32.1344 9.23288 33.3429 8.0969 34.8414 7.32347C36.3399 6.55004 37.9955 6.16333 39.8082 6.16333C41.6693 6.16333 43.337 6.56213 44.8113 7.35973C46.3099 8.15733 47.4942 9.30538 48.3643 10.8039C49.2586 12.3024 49.7057 14.1272 49.7057 16.2783C49.7057 18.3569 49.2827 20.1213 48.4368 21.5715C47.5909 23.0217 46.4307 24.1214 44.9564 24.8706C43.482 25.5957 41.8022 25.9583 39.917 25.9583ZM39.8082 20.0125C40.7267 20.0125 41.4518 19.8192 41.9835 19.4325C42.5152 19.0458 42.8899 18.5624 43.1074 17.9823C43.3249 17.378 43.4337 16.7859 43.4337 16.2058C43.4337 15.6257 43.3249 15.0215 43.1074 14.3931C42.8899 13.7647 42.5152 13.233 41.9835 12.7979C41.4759 12.3628 40.7509 12.1453 39.8082 12.1453C38.8898 12.1453 38.1526 12.3628 37.5967 12.7979C37.065 13.233 36.6904 13.7647 36.4728 14.3931C36.2553 14.9973 36.1465 15.6016 36.1465 16.2058C36.1465 16.8101 36.2553 17.4143 36.4728 18.0185C36.7145 18.5986 37.1012 19.082 37.633 19.4687C38.1647 19.8313 38.8898 20.0125 39.8082 20.0125Z" fill="#1A1A1A"/>
<path d="M0 25.6681V6.56201H5.6557L6.23577 8.59226C6.79167 7.843 7.38383 7.29918 8.01224 6.96081C8.66482 6.62243 9.28114 6.41699 9.86121 6.34448C10.4413 6.2478 10.9005 6.19946 11.2389 6.19946C12.254 6.19946 13.2087 6.38074 14.103 6.74328C15.0214 7.08165 15.7828 7.7584 16.387 8.77353C16.9429 8.04844 17.5351 7.50462 18.1635 7.14208C18.8161 6.77953 19.4566 6.53784 20.085 6.41699C20.7376 6.27197 21.3539 6.19946 21.9339 6.19946C23.4808 6.19946 24.7255 6.51367 25.6682 7.14208C26.6108 7.77049 27.2996 8.65268 27.7347 9.78865C28.1939 10.9246 28.4235 12.266 28.4235 13.8129V25.6681H22.0065V15.0093C22.0065 14.7193 21.9823 14.4051 21.9339 14.0667C21.9098 13.7283 21.8252 13.4141 21.6802 13.1241C21.5352 12.8099 21.3297 12.5561 21.0638 12.3627C20.798 12.1452 20.4233 12.0364 19.94 12.0364C19.4324 12.0364 19.0215 12.1331 18.7073 12.3265C18.3931 12.5198 18.1393 12.7736 17.946 13.0878C17.7768 13.402 17.6559 13.7646 17.5834 14.1754C17.5109 14.5622 17.4747 14.961 17.4747 15.3718V25.6681H11.0576V14.973C11.0576 14.7072 11.0334 14.4171 10.9851 14.1029C10.9368 13.7646 10.8401 13.4383 10.6951 13.1241C10.55 12.8099 10.3204 12.5561 10.0062 12.3627C9.7162 12.1452 9.30531 12.0364 8.77358 12.0364C8.02432 12.0364 7.4805 12.2419 7.14213 12.6528C6.80375 13.0636 6.59831 13.547 6.5258 14.1029C6.45329 14.6588 6.41704 15.1422 6.41704 15.5531V25.6681H0Z" fill="#1A1A1A"/>
<path d="M65.3928 47.7472C62.4683 47.7472 60.1964 47.0221 58.577 45.5719C56.9818 44.0976 56.1842 41.8982 56.1842 38.9736V28.3511H62.6012V38.4661C62.6012 39.0945 62.6858 39.6746 62.855 40.2063C63.0242 40.7138 63.3142 41.1247 63.7251 41.4389C64.1602 41.7531 64.7282 41.9102 65.4291 41.9102C66.2267 41.9102 66.7947 41.729 67.133 41.3664C67.4956 41.0039 67.7131 40.5567 67.7856 40.025C67.8823 39.4691 67.9307 38.9495 67.9307 38.4661V28.3511H74.3114V38.9736C74.3114 42.0915 73.5018 44.3393 71.8824 45.717C70.2872 47.0705 68.124 47.7472 65.3928 47.7472Z" fill="#1A1A1A"/>
<path d="M45.4829 47.7471C43.5252 47.7471 41.8091 47.3604 40.3348 46.5869C38.8846 45.7893 37.7486 44.6655 36.9269 43.2153C36.1293 41.7651 35.7305 40.037 35.7305 38.0309C35.7305 36.0248 36.1414 34.2725 36.9631 32.774C37.7849 31.2513 38.9329 30.067 40.4073 29.2211C41.8816 28.3751 43.5977 27.9521 45.5554 27.9521C46.9573 27.9521 48.2141 28.1697 49.3259 28.6047C50.4377 29.0398 51.3924 29.6682 52.19 30.49C52.9876 31.3117 53.5918 32.3027 54.0027 33.4628C54.4378 34.623 54.6553 35.9281 54.6553 37.3783C54.6553 37.7892 54.6311 38.188 54.5828 38.5747C54.5586 38.9373 54.4982 39.324 54.4015 39.7348H42.075C42.1233 40.1941 42.2684 40.6291 42.5101 41.04C42.7759 41.4509 43.1385 41.7772 43.5977 42.0189C44.0569 42.2606 44.637 42.3814 45.3379 42.3814C45.918 42.3814 46.4135 42.321 46.8243 42.2002C47.2594 42.0551 47.6098 41.8739 47.8757 41.6563C48.1416 41.4388 48.3108 41.2213 48.3833 41.0038H54.6553C54.3169 42.5748 53.6885 43.8679 52.7701 44.883C51.8758 45.8739 50.7882 46.599 49.5072 47.0582C48.2503 47.5175 46.9089 47.7471 45.4829 47.7471ZM42.1838 35.5656H48.6371C48.6371 35.203 48.5283 34.8284 48.3108 34.4417C48.1174 34.0308 47.779 33.6924 47.2956 33.4266C46.8364 33.1607 46.2201 33.0278 45.4467 33.0278C44.6974 33.0278 44.0811 33.1607 43.5977 33.4266C43.1143 33.6924 42.7517 34.0308 42.5101 34.4417C42.2925 34.8284 42.1838 35.203 42.1838 35.5656Z" fill="#1A1A1A"/>
<path d="M31.5312 48.0734C30.5161 48.0734 29.6339 47.7592 28.8846 47.1308C28.1595 46.5024 27.797 45.5718 27.797 44.3392C27.797 43.0824 28.1716 42.1156 28.9209 41.4388C29.6943 40.7379 30.5765 40.3875 31.5675 40.3875C32.5584 40.3875 33.4164 40.7258 34.1415 41.4026C34.8666 42.0793 35.2292 43.0461 35.2292 44.3029C35.2292 45.5598 34.8666 46.5024 34.1415 47.1308C33.4164 47.7592 32.5463 48.0734 31.5312 48.0734Z" fill="#1A1A1A"/>
<path d="M7.70264 47.457V28.3509H13.6121L13.9747 30.0912C14.5789 29.4628 15.2194 29.0035 15.8961 28.7135C16.5971 28.3993 17.2738 28.1938 17.9264 28.0972C18.579 28.0005 19.1349 27.9521 19.5941 27.9521C21.3827 27.9521 22.7845 28.363 23.7996 29.1848C24.8389 30.0066 25.5761 31.0942 26.0111 32.4477C26.4462 33.8012 26.6637 35.2876 26.6637 36.907V47.457H20.2467V37.4508C20.2467 37.0641 20.1983 36.6653 20.1017 36.2544C20.0292 35.8194 19.8841 35.4206 19.6666 35.058C19.4733 34.6955 19.1953 34.4054 18.8328 34.1879C18.4702 33.9462 17.9989 33.8254 17.4188 33.8254C16.6696 33.8254 16.0412 33.9946 15.5336 34.3329C15.0502 34.6713 14.6877 35.1305 14.446 35.7106C14.2284 36.2665 14.1197 36.8949 14.1197 37.5958V47.457H7.70264Z" fill="#1A1A1A"/>
<path d="M0 47.4572V28.3511H6.41704V47.4572H0Z" fill="#1A1A1A"/>
</svg>
